PathFileType	4	(X/Y/Z)	D:\Share\Shared_Data\Ergonomics\Sit To Stand Pertubation\S1\S1 Cal 01.trc
DataRate	CameraRate	NumFrames	NumMarkers	Units	OrigDataRate	OrigDataStartFrame	OrigNumFrames	
100	100	9	21	mm	100	60	237
Frame#	Time	R_ASIS			R_Pelvis			V_Sacral			L_Pelvis			L_ASIS			Clavical			R_Acromium			L_Acromium			Sternum			Torso			R_Thigh_Med			R_Thigh_Lat			R_Thigh			R_Shank_Med			R_Shank_Lat			R_Shank			R_Heel			R_Toe			RAJC			RHJC			RKJC			
		X1	Y1	Z1	X2	Y2	Z2	X3	Y3	Z3	X4	Y4	Z4	X5	Y5	Z5	X6	Y6	Z6	X7	Y7	Z7	X8	Y8	Z8	X9	Y9	Z9	X10	Y10	Z10	X11	Y11	Z11	X12	Y12	Z12	X13	Y13	Z13	X14	Y14	Z14	X15	Y15	Z15	X16	Y16	Z16	X17	Y17	Z17	X18	Y18	Z18	X19	Y19	Z19	X20	Y20	Z20	X21	Y21	Z21	

60	0.59	445.48553	912.65259	68.760704	378.43655	912.09717	94.100998	304.60956	907.52258	-65.254646	425.12128	899.32141	-193.30554	502.67773	898.46075	-126.83961	453.63559	1253.7767	-45.313168	356.99225	1317.1281	90.952438	408.16641	1321.2725	-187.04266	419.92239	1264.0643	52.505058	460.89337	1259.8782	-106.13091	336.08527	419.64014	4.4219933	360.30029	442.13486	130.59091	449.41275	599.11005	77.330666	330.95737	96.552139	51.050385	309.19916	96.769142	129.59549	323.71646	308.70215	149.61324	263.59592	39.68306	75.825317	469.55161	50.053272	91.466118	320.078265	96.6606405	90.3229375	401.9097712	839.0563714	32.71337331	348.19278	430.8875	67.50645165
61	0.6	445.41873	912.66571	68.678734	378.35971	912.08521	93.972198	304.49878	907.51764	-65.371857	425.00079	899.33691	-193.33707	502.64334	898.4502	-126.90704	453.34744	1253.7778	-45.383045	356.741	1317.033	90.918602	407.78708	1321.2583	-187.07019	419.68466	1264.0583	52.497139	460.61194	1259.9412	-106.16718	336.06805	419.62741	4.3931274	360.25659	442.12918	130.54448	449.35736	599.1012	77.224159	330.96878	96.552132	51.060154	309.1803	96.776741	129.57721	323.69717	308.70847	149.55739	263.58984	39.685215	75.810699	469.55362	50.038288	91.481483	320.07454	96.6644365	90.318682	401.8344234	839.0654005	32.62922259	348.16232	430.878295	67.4688037
62	0.61	445.29987	912.66052	68.552155	378.21643	912.06464	93.858574	304.37238	907.47791	-65.484673	424.91898	899.39496	-193.04349	502.52802	898.45825	-127.03137	453.05496	1253.8094	-45.413059	356.44394	1316.949	90.997124	407.4306	1321.1901	-187.05191	419.42459	1264.0374	52.459068	460.31757	1259.9713	-106.2213	335.98398	419.58981	4.2362351	360.18774	442.12082	130.42868	449.26227	599.08838	77.110489	330.95181	96.516167	51.038631	309.19662	96.769913	129.58124	323.66342	308.70444	149.49841	263.58142	39.654476	75.782295	469.5603	50.052979	91.490036	320.074215	96.64304	90.3099355	401.7324616	839.0498589	32.50281579	348.08586	430.855315	67.33245755
63	0.62	445.14651	912.65015	68.428513	378.09232	912.04095	93.744423	304.23007	907.45416	-65.625557	424.77039	899.37567	-193.26942	502.1062	898.41113	-128.382	452.78647	1253.8275	-45.43227	356.19321	1316.8278	91.061348	407.1524	1321.059	-187.1468	419.11743	1263.979	52.462063	460.01889	1259.9664	-106.2253	335.92596	419.54413	4.1640916	360.13675	442.12866	130.31236	449.18414	599.099	76.990425	330.90817	96.470665	50.982048	309.18076	96.749702	129.55753	323.62183	308.69724	149.43196	263.56705	39.635975	75.75666	469.55893	50.063599	91.485352	320.044465	96.6101835	90.269789	401.5793882	838.7026002	32.35216064	348.031355	430.836395	67.2382258
64	0.63	444.94327	912.62988	68.259346	377.89581	912.02045	93.548141	304.07339	907.44489	-65.773743	424.61377	899.40491	-193.42085	501.85681	898.18835	-128.67245	452.51254	1253.8386	-45.455826	355.94421	1316.6987	91.110817	406.93121	1320.9573	-187.217	418.8143	1263.9095	52.48082	459.78601	1259.9476	-106.20519	335.83646	419.51453	4.0807304	360.05338	442.13181	130.21568	449.05524	599.08978	76.887146	330.91565	96.458267	50.981121	309.16766	96.73494	129.53233	323.55765	308.68015	149.36357	263.56265	39.628586	75.762634	469.54028	50.052036	91.470207	320.041655	96.5966035	90.2567255	401.326986	838.6544769	32.24195564	347.94492	430.82317	67.1482052
65	0.64	444.78452	912.61719	68.151764	377.70334	911.99365	93.372757	303.92337	907.40881	-65.902	424.6496	899.69995	-192.79411	501.71024	898.19562	-128.77974	452.25366	1253.8242	-45.495949	355.67017	1316.5894	91.179688	406.73514	1320.7368	-187.31734	418.51312	1263.8164	52.482586	459.57764	1259.9009	-106.22043	335.7467	419.48453	3.9911416	359.97217	442.11887	130.15208	448.92813	599.09204	76.803604	330.90973	96.443947	50.972397	309.1521	96.714027	129.51714	323.51895	308.68164	149.32689	263.54953	39.618591	75.833725	469.534	50.064034	91.47065	320.030915	96.578987	90.2447685	401.1844748	838.6340828	32.12884545	347.859435	430.8017	67.0716108
66	0.65	444.59158	912.58813	68.05648	377.52887	911.97443	93.216164	303.78763	907.4054	-66.067764	424.48068	899.44354	-193.17671	501.58798	898.15692	-128.90994	452.00204	1253.7927	-45.507938	355.4136	1316.4642	91.243027	406.56723	1320.5297	-187.46587	418.2384	1263.7129	52.459003	459.38516	1259.8538	-106.24648	335.66159	419.41928	3.9351811	359.86548	442.10492	130.07565	448.81207	599.10632	76.716423	330.85126	96.375916	50.909069	309.13812	96.693909	129.50409	323.47626	308.69244	149.31335	263.55231	39.575256	75.795959	469.51465	50.066498	91.45977	319.99469	96.5349125	90.2065795	400.9934797	838.5968406	32.01201586	347.763535	430.7621	67.00541555
67	0.66	444.40222	912.56891	67.959122	377.3479	911.94794	93.056465	303.64883	907.40894	-66.258018	424.40552	899.44647	-193.21426	501.43933	898.15765	-129.04382	451.77402	1253.7457	-45.514328	355.16162	1316.309	91.178162	406.38315	1320.3807	-187.6501	417.93921	1263.6252	52.403831	459.18787	1259.769	-106.29485	335.55508	419.38846	3.8494198	359.75723	442.10797	130.01143	448.6713	599.10303	76.615936	330.8714	96.365318	50.945545	309.12457	96.676498	129.49107	323.40204	308.66788	149.24365	263.54745	39.569157	75.779655	469.54681	50.076832	91.487022	319.997985	96.520908	90.2183075	400.8093199	838.5716227	31.89251964	347.656155	430.748215	66.9304249
68	0.67	444.19559	912.53436	67.859871	377.14777	911.9317	92.909378	303.4975	907.40533	-66.38031	424.30072	899.43024	-193.45453	501.30307	898.16663	-129.13422	451.57523	1253.7106	-45.518108	354.87259	1316.1649	91.147385	406.28116	1320.2595	-187.79755	417.62418	1263.524	52.376476	458.99142	1259.7073	-106.32345	335.43488	419.35468	3.7425616	359.61871	442.10092	130.06091	448.52267	599.09143	76.533188	330.83337	96.341812	50.898575	309.12192	96.662117	129.48259	323.34412	308.67004	149.24133	263.53021	39.557919	75.79023	469.52652	50.059406	91.474678	319.977645	96.5019645	90.1905825	400.618939	838.542447	31.76149874	347.526795	430.7278	66.9017358
